<?xml version="1.0" encoding="UTF-8" standalone="no"?>
<!DOCTYPE svg PUBLIC "-//W3C//DTD SVG 1.1//EN" "http://www.w3.org/Graphics/SVG/1.1/DTD/svg11.dtd">
<svg width="100%" height="100%" viewBox="0 0 50 33" version="1.1" xmlns="http://www.w3.org/2000/svg" xmlns:xlink="http://www.w3.org/1999/xlink" xml:space="preserve" xmlns:serif="http://www.serif.com/" style="fill-rule:evenodd;clip-rule:evenodd;stroke-linejoin:round;stroke-miterlimit:2;">
    <path d="M8.752,14.73L12.172,14.73L12.172,0.69L8.752,0.69L8.752,6.19L3.432,6.19L3.432,0.69L0.012,0.69L0.012,14.73L3.432,14.73L3.432,8.95L8.752,8.95L8.752,14.73Z" style="fill:white;fill-rule:nonzero;"/>
    <path d="M23.241,0.69L14.641,0.69L14.641,14.73L23.241,14.73L23.241,11.99L18.061,11.99L18.061,8.91L22.641,8.91L22.641,6.27L18.061,6.27L18.061,3.43L23.241,3.43L23.241,0.69Z" style="fill:white;fill-rule:nonzero;"/>
    <path d="M25.461,0.69L25.461,14.73L33.361,14.73L33.361,12.09L28.881,12.09L28.881,0.69L25.461,0.69Z" style="fill:white;fill-rule:nonzero;"/>
    <path d="M38.413,6.97L38.413,3.45L40.273,3.45C41.633,3.45 42.213,4.13 42.213,5.21C42.213,6.29 41.633,6.97 40.273,6.97L38.413,6.97ZM45.693,5.21C45.693,2.63 43.973,0.69 40.533,0.69L34.993,0.69L34.993,14.73L38.413,14.73L38.413,9.69L40.533,9.69C44.113,9.69 45.693,7.53 45.693,5.21Z" style="fill:white;fill-rule:nonzero;"/>
    <path d="M5.272,18.69L0.012,18.69L0.012,32.73L5.272,32.73C9.752,32.73 12.632,29.87 12.632,25.71C12.632,21.53 9.752,18.69 5.272,18.69ZM3.432,29.77L3.432,21.61L5.052,21.61C7.632,21.61 9.152,23.13 9.152,25.71C9.152,28.29 7.632,29.77 5.052,29.77L3.432,29.77Z" style="fill:white;fill-rule:nonzero;"/>
    <path d="M23.143,18.69L14.543,18.69L14.543,32.73L23.143,32.73L23.143,29.99L17.963,29.99L17.963,26.91L22.543,26.91L22.543,24.27L17.963,24.27L17.963,21.43L23.143,21.43L23.143,18.69Z" style="fill:white;fill-rule:nonzero;"/>
    <path d="M35.564,28.55C35.564,23.85 28.624,24.95 28.624,22.51C28.624,21.63 29.244,21.21 30.064,21.23C30.984,21.25 31.624,21.79 31.684,22.69L35.384,22.69C35.244,20.01 33.184,18.49 30.124,18.49C27.184,18.49 25.004,19.97 25.004,22.63C24.964,27.61 31.984,26.21 31.984,28.81C31.984,29.63 31.344,30.13 30.344,30.13C29.384,30.13 28.704,29.61 28.604,28.53L24.964,28.53C25.064,31.37 27.424,32.87 30.444,32.87C33.724,32.87 35.564,30.91 35.564,28.55Z" style="fill:white;fill-rule:nonzero;"/>
    <path d="M45.808,32.73L49.988,32.73L44.348,25.57L49.788,18.69L45.768,18.69L41.088,24.85L41.088,18.69L37.668,18.69L37.668,32.73L41.088,32.73L41.088,26.53L45.808,32.73Z" style="fill:white;fill-rule:nonzero;"/>
</svg>
