<?xml version="1.0" encoding="UTF-8" standalone="no"?>
<!DOCTYPE svg PUBLIC "-//W3C//DTD SVG 1.1//EN" "http://www.w3.org/Graphics/SVG/1.1/DTD/svg11.dtd">
<svg width="100%" height="100%" viewBox="0 0 70 71" version="1.1" xmlns="http://www.w3.org/2000/svg" xmlns:xlink="http://www.w3.org/1999/xlink" xml:space="preserve" xmlns:serif="http://www.serif.com/" style="fill-rule:evenodd;clip-rule:evenodd;">
    <g>
        <rect x="0.5" y="0.63" width="69" height="69" style="fill:none;stroke:white;stroke-width:1px;"/>
        <path d="M18.752,33.08L22.172,33.08L22.172,19.04L18.752,19.04L18.752,24.54L13.432,24.54L13.432,19.04L10.012,19.04L10.012,33.08L13.432,33.08L13.432,27.3L18.752,27.3L18.752,33.08Z" style="fill:white;fill-rule:nonzero;"/>
        <path d="M33.241,19.04L24.641,19.04L24.641,33.08L33.241,33.08L33.241,30.34L28.061,30.34L28.061,27.26L32.641,27.26L32.641,24.62L28.061,24.62L28.061,21.78L33.241,21.78L33.241,19.04Z" style="fill:white;fill-rule:nonzero;"/>
        <path d="M35.461,19.04L35.461,33.08L43.361,33.08L43.361,30.44L38.881,30.44L38.881,19.04L35.461,19.04Z" style="fill:white;fill-rule:nonzero;"/>
        <path d="M48.412,25.32L48.412,21.8L50.272,21.8C51.632,21.8 52.212,22.48 52.212,23.56C52.212,24.64 51.632,25.32 50.272,25.32L48.412,25.32ZM55.692,23.56C55.692,20.98 53.972,19.04 50.532,19.04L44.992,19.04L44.992,33.08L48.412,33.08L48.412,28.04L50.532,28.04C54.112,28.04 55.692,25.88 55.692,23.56Z" style="fill:white;fill-rule:nonzero;"/>
        <path d="M15.272,37.04L10.012,37.04L10.012,51.08L15.272,51.08C19.752,51.08 22.632,48.22 22.632,44.06C22.632,39.88 19.752,37.04 15.272,37.04ZM13.432,48.12L13.432,39.96L15.052,39.96C17.632,39.96 19.152,41.48 19.152,44.06C19.152,46.64 17.632,48.12 15.052,48.12L13.432,48.12Z" style="fill:white;fill-rule:nonzero;"/>
        <path d="M33.143,37.04L24.543,37.04L24.543,51.08L33.143,51.08L33.143,48.34L27.963,48.34L27.963,45.26L32.543,45.26L32.543,42.62L27.963,42.62L27.963,39.78L33.143,39.78L33.143,37.04Z" style="fill:white;fill-rule:nonzero;"/>
        <path d="M45.564,46.9C45.564,42.2 38.624,43.3 38.624,40.86C38.624,39.98 39.244,39.56 40.064,39.58C40.984,39.6 41.624,40.14 41.684,41.04L45.384,41.04C45.244,38.36 43.184,36.84 40.124,36.84C37.184,36.84 35.004,38.32 35.004,40.98C34.964,45.96 41.984,44.56 41.984,47.16C41.984,47.98 41.344,48.48 40.344,48.48C39.384,48.48 38.704,47.96 38.603,46.88L34.964,46.88C35.064,49.72 37.423,51.22 40.444,51.22C43.724,51.22 45.564,49.26 45.564,46.9Z" style="fill:white;fill-rule:nonzero;"/>
        <path d="M55.808,51.08L59.988,51.08L54.348,43.92L59.788,37.04L55.768,37.04L51.088,43.2L51.088,37.04L47.668,37.04L47.668,51.08L51.088,51.08L51.088,44.88L55.808,51.08Z" style="fill:white;fill-rule:nonzero;"/>
    </g>
</svg>
